<svg id="Capa_1" data-name="Capa 1" xmlns="http://www.w3.org/2000/svg" viewBox="0 0 77.7 82"><defs><style>.cls-1{fill:#265664;}.cls-2{fill:#48989f;}.cls-3{fill:#f7f5f5;}</style></defs><path class="cls-1" d="M112.57,117.81c.85,1.22.79,1.73-.24,2.63a13.57,13.57,0,0,1-3.28,1.94c-.49.23-.86,0-1.26-.12a20.2,20.2,0,0,0-9.32-.93c-4.67.76-7.76,4-8.88,9.29-.32,1.5-.45,3-.66,4.55-.56-3.25.17-6.39.95-9.63-.72.39-.65,1.22-1.42,1.58a33.27,33.27,0,0,1,3.92-10,37.38,37.38,0,0,1,4.24-5.63c3-3.33,4.79-7.31,6.42-11.4,2-5.08,3.37-10.37,5.22-15.5.13-.37.3-.72.55-1.34,4,5.83,7.34,11.58,6.66,18.93a5.11,5.11,0,0,0,1.58-2.22c.79,1.79.42,4.27-1.06,7.12a2.55,2.55,0,0,0,1.91-.21,8.63,8.63,0,0,1-3.33,6.19c1.42.69,2.71,1.44,3,3.08a5.06,5.06,0,0,1-1.06,3.64c-.11-1.06,0-2.1-1-2.5S113.55,117.36,112.57,117.81Zm.47-6.61c1.18-7.27.82-14.32-2.33-21.2-.16.19-.26.25-.25.3a4.08,4.08,0,0,0,.11.7,33.2,33.2,0,0,1,1.06,10.87,12.75,12.75,0,0,1-1.69,5.54c-.45.76-.85.75-1.47.2a7,7,0,0,1-1.49-2.14c-.71,4.79.22,8.4,2.22,9,0-.45-.42-.87,0-1.33a5.26,5.26,0,0,0,2.37.66c-.68-1.65-.72-2.15-.27-3.43A4.08,4.08,0,0,0,113,111.2Z" transform="translate(-87.18 -83.25)"/><path class="cls-1" d="M146.49,91.45c-1.28,2.33-3.73,3.27-6.77,2.69a3.14,3.14,0,0,0-2.18.35,1,1,0,0,0-.42,1.43c.38.61.82.1,1.22-.19a1.9,1.9,0,0,1-.53,2.47c-.4.32-.4.61,0,.85,1.22.8.34,1.26-.28,1.71a6.68,6.68,0,0,1-1.2.56c.68.5,1.38,1,2,1.48a5.49,5.49,0,0,1,1.66,2,4.7,4.7,0,0,0,4.28,3.09,18.62,18.62,0,0,0-.8,2.89,6.06,6.06,0,0,0,3,6,23.89,23.89,0,0,0,6.42,2.54c2.83.81,5.68,1.58,8.51,2.41,3.24.94,4.25,2.51,2.83,6.09-.9,2.25-1.51,4.74-3.47,6.47a1,1,0,0,0-.19.54,6.42,6.42,0,0,1-3.34,4.57,18.4,18.4,0,0,1-7.6,2.36,55.52,55.52,0,0,1-13.81-.29c7-.26,14.19.11,20.72-3.28-2.57.45-5.06,1.27-7.68,1.53a29.11,29.11,0,0,1-7.8.13,43.66,43.66,0,0,0,11.77-2.32c3.12-1.15,6-2.66,7.7-5.71.48-.84.54-1.18-.64-1.36-2.78-.43-4.06-2.39-3.67-5.3s.21-3-2.47-4a32.65,32.65,0,0,1-5.13-2.27,19,19,0,0,1-7.93-7.91c-.76-1.45-1.61-2.84-2.42-4.27-3.49-6.15-8.95-8.8-15.84-8.92-1.31,0-2.63,0-4,0a11.46,11.46,0,0,0,4-8.6c.79.25,1.06.87,1.45,1.49a4.09,4.09,0,0,0,.84-2.12c.73.23,1,.85,1.27,1.44.13.31.21.52.56.29,1.35-.91,2.81-1.71,3.38-3.41a.56.56,0,0,1,.59.47c.36,1.55,1.13,1,2,.47a9,9,0,0,1,2.33-.91,3.51,3.51,0,0,1,3.72,1c.27.29.58.54.86.82C141.29,90.72,143.45,92,146.49,91.45Zm12,37.05c1.53,1.1,2.83.66,3.44-1.06.11-.29.44-.72-.07-.93s-.53.26-.7.5C160.49,127.93,160,129,158.47,128.5Z" transform="translate(-87.18 -83.25)"/><path class="cls-1" d="M145.65,162a121.67,121.67,0,0,1-18.49,2.94,72.32,72.32,0,0,1-18-.52,32,32,0,0,1-12.56-4.64c-5.71-3.81-8.5-9.3-9.16-16,.17-1.57-.31-3.17.18-4.73.92,11.18,7,18.32,17.37,22.05,7.29,2.63,14.87,3,22.53,2.73a136.11,136.11,0,0,0,17.45-2C145.2,161.86,145.48,161.74,145.65,162Z" transform="translate(-87.18 -83.25)"/><path class="cls-2" d="M101.78,146.48a22.5,22.5,0,0,1-3-14.26,26.28,26.28,0,0,1,1.62-7.2c.48-1.22,1-1.38,2.06-.66a15,15,0,0,1,2.94,2.79c.13.14.27.33.13.52s-.34.06-.53,0c-2.53-1-2.86-.8-3.43,1.88-.8,3.71.22,7,2.19,10.1.16.25.35.41.08.77-.67-.53-1.35-1.05-2-1.61s-.71-.29-.85.31a10.56,10.56,0,0,0,.39,5.76A3.49,3.49,0,0,1,101.78,146.48Z" transform="translate(-87.18 -83.25)"/><path class="cls-2" d="M122.2,149.91a15.67,15.67,0,0,0,3.42-4.07c.9-1.52,3.12-1.84,3.55-4.09-1.39.69-2.52,1.58-4.12,1.75a16.28,16.28,0,0,0,3.46-2.8,5.62,5.62,0,0,0,1.55-3.54c0-1.21-.33-2.17-2.14-2.26.87-.51,1.62-.71,1.45-1.55s-1-1.1-1.69-1.29a11.63,11.63,0,0,0-5.06-.66.76.76,0,0,1-.64-.22c-3.88-3.05-8.27-3.47-12.92-2.51a4.29,4.29,0,0,1-.94.1c3.82-1.53,7.76-2,11.63-.41a44,44,0,0,0,8.58,2.82c1.71.33,2.42,1.37,2.48,3.17a2.85,2.85,0,0,0,.22,1,4.66,4.66,0,0,1-.43,4.77,1.11,1.11,0,0,0-.26.64c0,2.17-1.3,3.52-3,4.56a3.2,3.2,0,0,0-1.15,1.16,13.52,13.52,0,0,1-3,3.23C122.92,150,122.66,150.23,122.2,149.91Z" transform="translate(-87.18 -83.25)"/><path class="cls-1" d="M129.93,147.2c.73.75,1,1.64,2.06,2a6.49,6.49,0,0,1,.2-5,6.4,6.4,0,0,0,3.74,7c-1.94.19-3.54,0-4.94-1.35-1.31,4-.72,7.12,3.3,9.11a5.23,5.23,0,0,1-4.72-3.88C128.78,152.46,129.26,149.89,129.93,147.2Z" transform="translate(-87.18 -83.25)"/><path class="cls-1" d="M129.06,120.73a7.37,7.37,0,0,0,1.79-1.73,18.22,18.22,0,0,1,2.41-2.32c1.8-1.4,3.35-.86,3.92,1.34.08.33.22.66-.34.64-.32,0-.34.27-.43.48a2.4,2.4,0,0,1-2.91,1.64,4.78,4.78,0,0,1-.82-.17c-1-.28-1.88-.65-2.78.16C129.7,121,129.37,120.88,129.06,120.73Zm6.18-1.12c-.55.41-1.23.19-2,.32C134.1,120.33,134.75,120.38,135.24,119.61Z" transform="translate(-87.18 -83.25)"/><path class="cls-2" d="M107.54,159.64c-4.91-2-9.26-4.71-11.46-9.83a13.82,13.82,0,0,1-.38-9.26c0-.09.14-.16.51-.58C94.86,149.7,99.7,155.55,107.54,159.64Z" transform="translate(-87.18 -83.25)"/><path class="cls-2" d="M124,160.86c-4.38.23-7.11-1.71-7.07-5.44,0-.74-.31-.84-.93-.84a4.17,4.17,0,0,1-3.63-1.57c2.59,1.53,4.86.23,7.34-.9-.82,2-2.06,3.85-1.08,5.94S121.83,160.33,124,160.86Z" transform="translate(-87.18 -83.25)"/><path class="cls-2" d="M98,135.2c-1-3.09-2-6.2-1.7-9.5.07-.79.07-1.68,1-2s1.82.11,2.75.75c-1.65.65-2,1.92-2.15,3.38a39.55,39.55,0,0,0,.12,6C98,134.25,98,134.73,98,135.2Z" transform="translate(-87.18 -83.25)"/><path class="cls-1" d="M128.16,101.2c3.59.31,8.31,4,8.59,6.49A27.44,27.44,0,0,0,128.16,101.2Z" transform="translate(-87.18 -83.25)"/><path class="cls-2" d="M123.7,139c-3.76.7-6.87,2.68-9.78,5C116.62,141.27,119.72,139.27,123.7,139Z" transform="translate(-87.18 -83.25)"/><path class="cls-2" d="M104.23,132.79a3.06,3.06,0,0,0,1.27-2.49c1.49,3.23,1,5.06-1.86,5.6a3.17,3.17,0,0,0,2.1-2.36c.19-.81.1-1.17-.82-.79A2.68,2.68,0,0,1,104.23,132.79Z" transform="translate(-87.18 -83.25)"/><path class="cls-2" d="M122.6,140.8a25.77,25.77,0,0,0-7.55,6.86C116.31,144.94,120.08,141.52,122.6,140.8Z" transform="translate(-87.18 -83.25)"/><path class="cls-2" d="M120.25,131.27a5.8,5.8,0,0,1,1.81,2.93,3.57,3.57,0,0,1-.57,0C118.77,133.65,118.77,133.65,120.25,131.27Z" transform="translate(-87.18 -83.25)"/><path class="cls-2" d="M123.22,141.74a24.29,24.29,0,0,0-5.7,8.12A14.7,14.7,0,0,1,123.22,141.74Z" transform="translate(-87.18 -83.25)"/><path class="cls-2" d="M87.62,139c-.49,1.56,0,3.16-.18,4.73a24.38,24.38,0,0,1,.12-7.81l0,0Z" transform="translate(-87.18 -83.25)"/><path class="cls-1" d="M136.17,112c-.82-1.08-1.85-1-2.95-1C134.65,110,135.61,110.33,136.17,112Z" transform="translate(-87.18 -83.25)"/><path class="cls-2" d="M145.65,162c-.17-.25-.45-.13-.68-.2a10.23,10.23,0,0,1,3.29-.5A6.76,6.76,0,0,1,145.65,162Z" transform="translate(-87.18 -83.25)"/><path class="cls-1" d="M137.55,137.82a5.39,5.39,0,0,0-.51,2.07C136.34,138.92,136.43,138.56,137.55,137.82Z" transform="translate(-87.18 -83.25)"/><path class="cls-3" d="M113,111.2a4.08,4.08,0,0,1-1.79-.82c-.45,1.28-.41,1.78.27,3.43a5.26,5.26,0,0,1-2.37-.66c-.37.46,0,.88,0,1.33-2-.61-2.93-4.22-2.22-9a7,7,0,0,0,1.49,2.14c.62.55,1,.56,1.47-.2a12.75,12.75,0,0,0,1.69-5.54A33.2,33.2,0,0,0,110.57,91a4.08,4.08,0,0,1-.11-.7s.09-.11.25-.3C113.86,96.88,114.22,103.93,113,111.2Z" transform="translate(-87.18 -83.25)"/><path class="cls-3" d="M158.47,128.5c1.49.53,2-.57,2.67-1.49.17-.24.31-.66.7-.5s.18.64.07.93C161.3,129.16,160,129.6,158.47,128.5Z" transform="translate(-87.18 -83.25)"/><path class="cls-3" d="M135.24,119.61c-.49.77-1.14.72-2,.32C134,119.8,134.69,120,135.24,119.61Z" transform="translate(-87.18 -83.25)"/></svg>